<?xml version="1.0" encoding="utf-8"?>
<!-- Generator: Adobe Illustrator 16.0.3, SVG Export Plug-In . SVG Version: 6.00 Build 0)  -->
<!DOCTYPE svg PUBLIC "-//W3C//DTD SVG 1.1//EN" "http://www.w3.org/Graphics/SVG/1.1/DTD/svg11.dtd">
<svg version="1.1" xmlns="http://www.w3.org/2000/svg" xmlns:xlink="http://www.w3.org/1999/xlink" x="0px" y="0px" width="1792px"
	 height="1792px" viewBox="0 0 1792 1792" enable-background="new 0 0 1792 1792" xml:space="preserve">
<g id="Layer_2">
	<circle fill="#FF0000" stroke="#FF0000" stroke-width="120" stroke-miterlimit="10" cx="896" cy="896" r="768"/>
</g>
<g id="Layer_3">
	<path fill="#FFFFFF" d="M1277,1122c0-17.333-6.333-32.333-19-45l-181-181l181-181c12.667-12.667,19-27.667,19-45
		c0-18-6.333-33.333-19-46l-90-90c-12.667-12.667-28-19-46-19c-17.333,0-32.333,6.333-45,19L896,715L715,534
		c-12.667-12.667-27.667-19-45-19c-18,0-33.333,6.333-46,19l-90,90c-12.667,12.667-19,28-19,46c0,17.333,6.333,32.333,19,45l181,181
		l-181,181c-12.667,12.667-19,27.667-19,45c0,18,6.333,33.333,19,46l90,90c12.667,12.667,28,19,46,19c17.333,0,32.333-6.333,45-19
		l181-181l181,181c12.667,12.667,27.667,19,45,19c18,0,33.333-6.333,46-19l90-90C1270.667,1155.333,1277,1140,1277,1122z"/>
</g>
</svg>
