<?xml version="1.0" encoding="utf-8"?>
<!-- Generator: Adobe Illustrator 16.0.3, SVG Export Plug-In . SVG Version: 6.00 Build 0)  -->
<!DOCTYPE svg PUBLIC "-//W3C//DTD SVG 1.1//EN" "http://www.w3.org/Graphics/SVG/1.1/DTD/svg11.dtd">
<svg version="1.1" id="Calque_1" xmlns="http://www.w3.org/2000/svg" xmlns:xlink="http://www.w3.org/1999/xlink" x="0px" y="0px"
	 width="164.291px" height="164.291px" viewBox="0 0 164.291 164.291" enable-background="new 0 0 164.291 164.291"
	 xml:space="preserve">
<g id="contenus">
	<g>
		<path fill="#C8C8C8" d="M21.003,112.578c-0.451,0-0.937-0.104-1.387-0.277c-1.283-0.556-2.081-1.804-2.081-3.191V86.013h-3.919
			c-6.659,0-12.034-5.411-12.034-12.035V26.015c0-6.659,5.411-12.035,12.034-12.035h82.368c6.658,0,12.034,5.41,12.034,12.035
			v29.132c0,1.907-1.562,3.468-3.469,3.468s-3.468-1.561-3.468-3.468V26.015c0-2.81-2.289-5.098-5.098-5.098H13.616
			c-2.809,0-5.098,2.289-5.098,5.098v47.929c0,2.809,2.29,5.098,5.098,5.098h7.387c1.908,0,3.468,1.561,3.468,3.468v18.52
			l22.3-21.052c0.659-0.624,1.491-0.936,2.393-0.936h10.578c1.907,0,3.468,1.561,3.468,3.468c0,1.908-1.561,3.468-3.468,3.468
			h-9.191l-27.155,25.63C22.737,112.266,21.87,112.578,21.003,112.578z"/>
		<path fill="#C8C8C8" d="M143.288,150.311c-0.867,0-1.734-0.312-2.394-0.937l-27.154-25.629H68.308
			c-6.659,0-12.034-5.41-12.034-12.034V82.579c0-1.907,1.561-3.468,3.468-3.468c1.907,0,3.468,1.561,3.468,3.468v29.132
			c0,2.809,2.289,5.099,5.098,5.099h46.819c0.867,0,1.734,0.346,2.393,0.937l22.3,21.051v-18.521c0-1.906,1.561-3.467,3.469-3.467
			h7.387c2.81,0,5.099-2.29,5.099-5.099V63.748c0-2.81-2.289-5.098-5.099-5.098h-46.091c-1.907,0-3.468-1.561-3.468-3.468
			s1.561-3.468,3.468-3.468h46.091c6.658,0,12.034,5.41,12.034,12.035v47.928c0,6.659-5.41,12.035-12.034,12.035h-3.918v23.098
			c0,1.387-0.833,2.635-2.082,3.19C144.225,150.206,143.739,150.311,143.288,150.311z"/>
		<path fill="#C8C8C8" d="M59.742,86.013c-1.908,0-3.468-1.562-3.468-3.468V63.748c0-6.659,5.41-12.035,12.034-12.035h36.276
			c1.908,0,3.468,1.561,3.468,3.468s-1.56,3.468-3.468,3.468H68.308c-2.809,0-5.098,2.289-5.098,5.098v18.797
			C63.209,84.451,61.649,86.013,59.742,86.013z"/>
	</g>
</g>
<g id="gabarit">
</g>
</svg>
