<?xml version="1.0" encoding="utf-8"?>
<!-- Generator: Adobe Illustrator 16.0.3, SVG Export Plug-In . SVG Version: 6.00 Build 0)  -->
<!DOCTYPE svg PUBLIC "-//W3C//DTD SVG 1.1//EN" "http://www.w3.org/Graphics/SVG/1.1/DTD/svg11.dtd">
<svg version="1.1" id="Calque_1" xmlns="http://www.w3.org/2000/svg" xmlns:xlink="http://www.w3.org/1999/xlink" x="0px" y="0px"
	 width="164.291px" height="164.291px" viewBox="0 0 164.291 164.291" enable-background="new 0 0 164.291 164.291"
	 xml:space="preserve">
<g id="contenus">
	<g>
		<path fill="#C8C8C8" d="M82.146,141.661c-0.511,0-1.059-0.11-1.533-0.329l-50.771-23.433c-1.277-0.584-2.117-1.898-2.117-3.321
			V6.354c0-1.241,0.62-2.409,1.679-3.065c1.059-0.657,2.373-0.767,3.504-0.256L83.679,26.43c1.277,0.584,2.117,1.898,2.117,3.322
			v108.259c0,1.241-0.621,2.409-1.679,3.066C83.532,141.442,82.839,141.661,82.146,141.661z M35.023,112.278l43.472,20.038V32.087
			L35.023,12.049V112.278z"/>
		<path fill="#C8C8C8" d="M82.146,141.661c-0.693,0-1.387-0.183-1.971-0.584c-1.059-0.657-1.68-1.825-1.68-3.066V29.751
			c0-1.424,0.84-2.701,2.117-3.322l50.772-23.396c1.131-0.511,2.445-0.438,3.504,0.256c1.059,0.657,1.679,1.825,1.679,3.065v108.26
			c0,1.424-0.84,2.701-2.117,3.321l-50.771,23.396C83.204,141.551,82.656,141.661,82.146,141.661z M85.796,32.087v100.229
			l43.472-20.038V12.049L85.796,32.087z"/>
		<path fill="#C8C8C8" d="M82.146,161.59c-0.475,0-0.949-0.073-1.387-0.256l-68.693-28.104c-1.388-0.548-2.264-1.898-2.264-3.395
			V21.575c0-1.168,0.584-2.299,1.533-2.957c0.949-0.693,2.19-0.876,3.321-0.474l17.922,6.168c1.898,0.657,2.92,2.737,2.263,4.635
			c-0.656,1.898-2.737,2.92-4.635,2.263l-13.104-4.49v100.704l61.393,25.112v-14.491c0-2.007,1.643-3.649,3.65-3.649
			s3.65,1.643,3.65,3.649v19.93c0,1.204-0.621,2.336-1.606,3.029C83.569,161.371,82.876,161.59,82.146,161.59z"/>
		<path fill="#C8C8C8" d="M82.146,161.59c-0.73,0-1.424-0.219-2.044-0.62c-1.022-0.694-1.606-1.825-1.606-3.03v-19.929
			c0-2.008,1.643-3.649,3.65-3.649s3.65,1.642,3.65,3.649v14.49l61.394-25.111V26.722l-13.104,4.49
			c-1.898,0.657-3.979-0.365-4.636-2.263c-0.657-1.898,0.364-3.979,2.263-4.635l17.922-6.168c1.131-0.365,2.336-0.219,3.321,0.474
			c0.985,0.694,1.533,1.789,1.533,2.957v108.26c0,1.496-0.913,2.811-2.264,3.395l-68.693,28.068
			C83.095,161.48,82.62,161.59,82.146,161.59z"/>
	</g>
</g>
<g id="gabarit">
</g>
</svg>
