<?xml version="1.0" encoding="utf-8"?>
<!-- Generator: Adobe Illustrator 16.0.3, SVG Export Plug-In . SVG Version: 6.00 Build 0)  -->
<!DOCTYPE svg PUBLIC "-//W3C//DTD SVG 1.1//EN" "http://www.w3.org/Graphics/SVG/1.1/DTD/svg11.dtd">
<svg version="1.1" id="Calque_1" xmlns="http://www.w3.org/2000/svg" xmlns:xlink="http://www.w3.org/1999/xlink" x="0px" y="0px"
	 width="164.291px" height="164.291px" viewBox="0 0 164.291 164.291" enable-background="new 0 0 164.291 164.291"
	 xml:space="preserve">
<g id="contenus">
	<path fill="#C8C8C8" d="M111.229,158.252H21.6c-1.869,0-3.397-1.529-3.397-3.397V9.437c0-1.868,1.529-3.397,3.397-3.397h88.473
		c0.782,0,1.563,0.272,2.175,0.782l32.617,26.977c0.781,0.646,1.224,1.597,1.224,2.616v100.093c0,1.869-1.529,3.398-3.398,3.398
		c-1.868,0-3.397-1.529-3.397-3.398V38.045l-30.442-25.21H24.998v138.622h86.231c1.869,0,3.398,1.529,3.398,3.398
		C114.627,156.723,113.132,158.252,111.229,158.252z"/>
	<path fill="#C8C8C8" d="M111.229,122.61c-0.577,0-1.155-0.136-1.698-0.441c-1.054-0.611-1.699-1.732-1.699-2.956V83.131
		c0-1.223,0.646-2.345,1.699-2.922l31.462-18.313c1.053-0.611,2.344-0.611,3.397,0c1.053,0.612,1.699,1.733,1.699,2.956v36.083
		c0,1.223-0.646,2.344-1.699,2.922l-31.462,18.313C112.418,122.475,111.841,122.61,111.229,122.61z M114.627,85.067v28.234
		l24.666-14.372V70.696L114.627,85.067z M142.69,100.9L142.69,100.9L142.69,100.9z"/>
	<path fill="#C8C8C8" d="M111.229,158.252c-0.577,0-1.155-0.136-1.698-0.442c-1.054-0.611-1.699-1.732-1.699-2.955v-36.117
		c0-1.223,0.646-2.344,1.699-2.922l31.462-18.313c1.053-0.612,2.344-0.612,3.397,0c1.053,0.611,1.699,1.732,1.699,2.956v36.082
		c0,1.224-0.646,2.345-1.699,2.922l-31.462,18.313C112.418,158.082,111.841,158.252,111.229,158.252z M114.627,120.708v28.234
		l24.666-14.372v-28.234L114.627,120.708z M142.69,136.541L142.69,136.541L142.69,136.541z"/>
</g>
<g id="gabarit">
</g>
</svg>
