<?xml version="1.0" encoding="utf-8"?>
<!-- Generator: Adobe Illustrator 16.0.3, SVG Export Plug-In . SVG Version: 6.00 Build 0)  -->
<!DOCTYPE svg PUBLIC "-//W3C//DTD SVG 1.1//EN" "http://www.w3.org/Graphics/SVG/1.1/DTD/svg11.dtd">
<svg version="1.1" id="Layer_1" xmlns="http://www.w3.org/2000/svg" xmlns:xlink="http://www.w3.org/1999/xlink" x="0px" y="0px"
	 width="499px" height="464px" viewBox="0 0 499 464" enable-background="new 0 0 499 464" xml:space="preserve">
<g id="contenus">
	<g>
		<path fill="#C8C8C8" d="M244.635,137.728c-2.939,0-5.777-1.318-7.702-3.648l-53.306-63.136c-3.648-4.256-3.04-10.641,1.217-14.289
			c4.256-3.648,10.641-3.04,14.289,1.216l45.3,53.711l77.222-96.883c3.446-4.357,9.831-5.067,14.29-1.621
			c4.357,3.446,5.066,9.83,1.621,14.289l-84.925,106.511c-1.926,2.331-4.763,3.749-7.803,3.851
			C244.737,137.728,244.737,137.728,244.635,137.728z"/>
		<g>
			<path fill="#C8C8C8" d="M132.247,453.104H58.572c-10.945,0-19.863-8.918-19.863-19.863v-73.676
				c0-10.944,8.917-19.862,19.863-19.862h73.675c10.945,0,19.863,8.918,19.863,19.862v73.676
				C152.211,444.186,143.293,453.104,132.247,453.104z M131.943,359.564l-73.372,0.305l0.405,73.27l72.966-0.404V359.564z"/>
			<path fill="#C8C8C8" d="M286.388,453.104h-73.675c-10.945,0-19.863-8.918-19.863-19.863v-73.676
				c0-10.944,8.918-19.862,19.863-19.862h73.675c10.945,0,19.862,8.918,19.862,19.862v73.676
				C306.25,444.186,297.333,453.104,286.388,453.104z M285.982,359.564l-73.27,0.406l0.406,73.27l72.965-0.404v-73.271H285.982z"/>
			<path fill="#C8C8C8" d="M440.427,453.104h-73.676c-10.944,0-19.862-8.918-19.862-19.863v-73.676
				c0-10.944,8.918-19.862,19.862-19.862h73.676c10.945,0,19.863,8.918,19.863,19.862v73.676
				C460.392,444.186,451.372,453.104,440.427,453.104z M440.123,359.564l-73.271,0.406l0.405,73.27l72.967-0.404v-73.271H440.123z"
				/>
		</g>
		<g>
			<path fill="#C8C8C8" d="M403.64,306.361c-5.573,0-10.134-4.562-10.134-10.135v-46.921H105.594v46.921
				c0,5.573-4.561,10.135-10.134,10.135s-10.134-4.562-10.134-10.135v-57.056c0-5.574,4.56-10.134,10.134-10.134h308.18
				c5.574,0,10.135,4.56,10.135,10.134v57.056C413.774,301.8,409.214,306.361,403.64,306.361z"/>
			<path fill="#C8C8C8" d="M249.5,306.361c-5.574,0-10.134-4.562-10.134-10.135V180.19c0-5.574,4.561-10.134,10.134-10.134
				c5.573,0,10.134,4.561,10.134,10.134v116.037C259.634,301.8,255.072,306.361,249.5,306.361z"/>
		</g>
	</g>
</g>
<g id="gabarit">
</g>
</svg>
