<?xml version="1.0" encoding="utf-8"?>
<!-- Generator: Adobe Illustrator 16.0.3, SVG Export Plug-In . SVG Version: 6.00 Build 0)  -->
<!DOCTYPE svg PUBLIC "-//W3C//DTD SVG 1.1//EN" "http://www.w3.org/Graphics/SVG/1.1/DTD/svg11.dtd">
<svg version="1.1" id="Calque_1" xmlns="http://www.w3.org/2000/svg" xmlns:xlink="http://www.w3.org/1999/xlink" x="0px" y="0px"
	 width="164.291px" height="164.291px" viewBox="0 0 164.291 164.291" enable-background="new 0 0 164.291 164.291"
	 xml:space="preserve">
<g id="contenus">
	<g>
		<path fill="#FFFFFF" d="M146.867,55.388c-1.911,0-3.475-1.564-3.475-3.475v-4.482c0-4.031-3.267-7.297-7.298-7.297H67.985
			c-1.911,0-3.475-1.564-3.475-3.475s1.564-3.475,3.475-3.475h68.109c7.854,0,14.247,6.394,14.247,14.248v4.482
			C150.342,53.824,148.813,55.388,146.867,55.388z"/>
		<path fill="#FFFFFF" d="M147.979,142.332H16.313c-7.854,0-14.248-6.395-14.248-14.248V36.207c0-7.854,6.394-14.248,14.248-14.248
			h33.151c7.853,0,14.247,6.394,14.247,14.248v19.911h84.268c7.854,0,14.248,6.395,14.248,14.248v57.719
			C162.191,135.938,155.832,142.332,147.979,142.332z M49.464,135.382h98.515c4.031,0,7.298-3.267,7.298-7.298V70.365
			c0-4.031-3.267-7.297-7.298-7.297H60.236c-1.912,0-3.475-1.564-3.475-3.475V36.207c0-4.031-3.267-7.297-7.297-7.297H16.313
			c-4.031,0-7.297,3.266-7.297,7.297v91.877c0,4.031,3.267,7.298,7.297,7.298H49.464z"/>
	</g>
</g>
<g id="gabarit">
</g>
</svg>
