<?xml version="1.0" encoding="utf-8"?>
<!-- Generator: Adobe Illustrator 16.0.3, SVG Export Plug-In . SVG Version: 6.00 Build 0)  -->
<!DOCTYPE svg PUBLIC "-//W3C//DTD SVG 1.1//EN" "http://www.w3.org/Graphics/SVG/1.1/DTD/svg11.dtd">
<svg version="1.1" id="Calque_1" xmlns="http://www.w3.org/2000/svg" xmlns:xlink="http://www.w3.org/1999/xlink" x="0px" y="0px"
	 width="164.291px" height="164.291px" viewBox="0 0 164.291 164.291" enable-background="new 0 0 164.291 164.291"
	 xml:space="preserve">
<path fill="#249492" d="M102.791,86.905"/>
<g>
	<polygon fill="#FFFFFF" points="81.059,39.413 64.896,39.413 36.276,76.294 36.276,156.195 128.013,156.195 128.013,108.861 
		128.013,39.413 	"/>
	<g>
		<polyline fill="#39C6BC" points="36.276,77.746 64.703,77.746 64.703,39.811 		"/>
		<path fill="#249492" d="M64.702,79.747H36.276c-1.105,0-2-0.895-2-2s0.895-2,2-2h26.426V39.81c0-1.105,0.895-2,2-2s2,0.895,2,2
			v37.938C66.702,78.853,65.808,79.747,64.702,79.747z"/>
	</g>
	<path fill="#716F6A" d="M128.014,158.197H36.276c-1.105,0-2-0.896-2-2V76.294c0-0.445,0.148-0.875,0.422-1.227l28.621-36.881
		c0.375-0.488,0.961-0.773,1.578-0.773h63.117c1.105,0,2,0.895,2,2v116.784C130.014,157.301,129.12,158.197,128.014,158.197z
		 M38.276,154.197h87.738V41.413H65.878L38.276,76.978V154.197z"/>
	<path fill="#249492" d="M99.251,111.683l13.837-13.838c1.563-1.563,1.563-4.094,0-5.656s-4.094-1.563-5.656,0l-13.837,13.838
		L79.757,92.188c-1.563-1.563-4.094-1.563-5.656,0s-1.563,4.094,0,5.656l13.838,13.838l-13.838,13.838
		c-1.563,1.563-1.563,4.093,0,5.655c0.781,0.782,1.805,1.172,2.828,1.172s2.047-0.39,2.828-1.172l13.838-13.837l13.837,13.837
		c0.781,0.782,1.805,1.172,2.828,1.172s2.047-0.39,2.828-1.172c1.563-1.563,1.563-4.093,0-5.655L99.251,111.683z"/>
	<path fill="#249492" d="M91.272,68.345c-0.09,0-0.18-0.004-0.27-0.012c-1.547-0.102-2.895-1.094-3.457-2.539L73.202,28.96
		c-0.801-2.059,0.215-4.377,2.273-5.178c2.051-0.801,4.383,0.215,5.18,2.275l11.25,28.883l25.878-46.779
		c1.07-1.936,3.508-2.637,5.438-1.564c1.934,1.07,2.633,3.504,1.563,5.436L94.772,66.278C94.065,67.56,92.722,68.345,91.272,68.345z
		"/>
</g>
</svg>
