<?xml version="1.0" encoding="utf-8"?>
<!-- Generator: Adobe Illustrator 16.0.3, SVG Export Plug-In . SVG Version: 6.00 Build 0)  -->
<!DOCTYPE svg PUBLIC "-//W3C//DTD SVG 1.1//EN" "http://www.w3.org/Graphics/SVG/1.1/DTD/svg11.dtd">
<svg version="1.1" id="Calque_1" xmlns="http://www.w3.org/2000/svg" xmlns:xlink="http://www.w3.org/1999/xlink" x="0px" y="0px"
	 width="164.291px" height="164.291px" viewBox="0 0 164.291 164.291" enable-background="new 0 0 164.291 164.291"
	 xml:space="preserve">
<g id="contenus">
	<g>
		<path fill="#C8C8C8" d="M82.146,158.202c-41.929,0-76.057-34.128-76.057-76.057c0-41.929,34.127-76.057,76.057-76.057
			c41.929,0,76.057,34.127,76.057,76.057C158.202,124.074,124.074,158.202,82.146,158.202z M82.146,12.962
			c-38.149,0-69.183,31.034-69.183,69.183c0,38.148,31.034,69.184,69.183,69.184c38.148,0,69.184-31.035,69.184-69.184
			C151.329,43.997,120.294,12.962,82.146,12.962z"/>
		<path fill="#C8C8C8" d="M82.146,158.202c-18.456,0-32.891-33.405-32.891-76.057c0-42.651,14.435-76.057,32.891-76.057
			c18.456,0,32.891,33.406,32.891,76.057C115.036,124.797,100.602,158.202,82.146,158.202z M82.146,12.962
			c-15.328,0-26.017,36.464-26.017,69.183s10.688,69.184,26.017,69.184s26.017-36.465,26.017-69.184S97.474,12.962,82.146,12.962z"
			/>
		<path fill="#C8C8C8" d="M83.211,50.252c-19.762,0-38.458-6.29-52.687-17.734c-1.478-1.203-1.718-3.368-0.55-4.846
			c1.203-1.478,3.368-1.718,4.846-0.516c13.026,10.482,30.21,16.222,48.391,16.222c17.184,0,33.646-5.224,46.362-14.675
			c1.513-1.134,3.678-0.825,4.812,0.722c1.135,1.512,0.825,3.677-0.722,4.812C119.778,44.547,101.839,50.252,83.211,50.252z"/>
		<path fill="#C8C8C8" d="M131.636,138.956c-0.756,0-1.513-0.24-2.165-0.756c-13.025-10.482-30.21-16.222-48.391-16.222
			c-17.184,0-33.646,5.224-46.362,14.675c-1.547,1.134-3.678,0.825-4.812-0.722c-1.134-1.513-0.825-3.678,0.722-4.812
			c13.919-10.345,31.825-16.016,50.452-16.016c19.762,0,38.458,6.29,52.687,17.734c1.478,1.202,1.719,3.368,0.516,4.846
			C133.629,138.509,132.633,138.956,131.636,138.956z"/>
		<path fill="#C8C8C8" d="M154.594,85.582H9.698c-1.891,0-3.437-1.546-3.437-3.437c0-1.89,1.546-3.437,3.437-3.437h144.896
			c1.89,0,3.437,1.547,3.437,3.437C158.03,84.036,156.519,85.582,154.594,85.582z"/>
	</g>
</g>
<g id="gabarit">
</g>
</svg>
