<?xml version="1.0" encoding="utf-8"?>
<!-- Generator: Adobe Illustrator 16.0.3, SVG Export Plug-In . SVG Version: 6.00 Build 0)  -->
<!DOCTYPE svg PUBLIC "-//W3C//DTD SVG 1.1//EN" "http://www.w3.org/Graphics/SVG/1.1/DTD/svg11.dtd">
<svg version="1.1" id="Calque_1" xmlns="http://www.w3.org/2000/svg" xmlns:xlink="http://www.w3.org/1999/xlink" x="0px" y="0px"
	 width="128px" height="128px" viewBox="0 0 128 128" enable-background="new 0 0 128 128" xml:space="preserve">
<path fill="#3C3C3C" d="M126.135,94.901c-0.066-0.076-6.542-7.522-8.146-16.202c5.458-6.578,8.31-14.173,8.255-21.993
	c-0.079-10.935-5.743-21.146-15.953-28.754c-10.078-7.51-23.416-11.622-37.541-11.489c-29.334,0.208-53.071,18.606-52.912,41.005
	C19.917,68.4,25.58,78.613,35.79,86.22c9.953,7.42,23.086,11.493,37.029,11.493c0.17,0,0.338,0,0.511-0.005
	c10.675-0.076,20.914-2.542,29.691-7.148c10.754,6.468,21.425,6.916,21.886,6.933c0.647,0.024,1.199-0.328,1.468-0.892
	C126.639,96.036,126.545,95.367,126.135,94.901 M59.675,60.619h-0.78c-2.154,0-3.901-1.749-3.901-3.903c0-2.154,1.747-3.9,3.901-3.9
	h0.78c2.156,0,3.903,1.747,3.903,3.9C63.578,58.87,61.832,60.619,59.675,60.619 M72.941,60.619h-0.78
	c-2.156,0-3.902-1.749-3.902-3.903c0-2.154,1.746-3.9,3.902-3.9h0.78c2.159,0,3.9,1.747,3.9,3.9
	C76.842,58.87,75.101,60.619,72.941,60.619 M86.207,60.619H85.43c-2.154,0-3.905-1.749-3.905-3.903c0-2.154,1.751-3.9,3.905-3.9
	h0.777c2.157,0,3.903,1.747,3.903,3.9C90.11,58.87,88.364,60.619,86.207,60.619"/>
<path fill="#3C3C3C" d="M86.836,99.551c-8.396,5.661-19.42,8.905-30.922,8.905c-0.145,0-0.292,0-0.44-0.003
	c-9.728-0.069-19.028-2.375-26.898-6.666c-0.944-0.517-2.071-0.471-2.983,0.103c-4.532,2.848-9.17,4.429-12.768,5.3
	c1.938-3.272,3.961-7.609,4.684-12.331c0.138-0.897-0.186-1.804-0.776-2.495c-4.709-5.526-7.173-11.889-7.126-18.397
	c0.044-6.246,2.412-12.301,6.763-17.559c0.277-0.333,0.44-0.744,0.464-1.177c0.187-3.159,0.804-6.232,1.812-9.184
	c-0.367,0.263-0.679,0.506-0.895,0.68C8.743,54.086,3.744,63.744,3.673,73.921c-0.057,7.571,2.614,14.911,7.735,21.312
	c-1.641,7.519-7.21,13.962-7.267,14.024c-0.781,0.888-0.96,2.159-0.455,3.229c0.509,1.069,1.597,1.746,2.789,1.693
	c0.441-0.015,10.494-0.441,20.794-6.377c8.384,4.242,18.08,6.516,28.161,6.586h0.503c16.361,0,31.375-5.715,41.269-15.716
	c0.527-0.532,1.797-1.905,2.922-3.349c-3.997,1.718-8.229,3.032-12.613,3.943C87.271,99.315,87.042,99.412,86.836,99.551"/>
</svg>
