<?xml version="1.0" encoding="utf-8"?>
<!-- Generator: Adobe Illustrator 16.0.3, SVG Export Plug-In . SVG Version: 6.00 Build 0)  -->
<!DOCTYPE svg PUBLIC "-//W3C//DTD SVG 1.1//EN" "http://www.w3.org/Graphics/SVG/1.1/DTD/svg11.dtd">
<svg version="1.1" id="Calque_1" xmlns="http://www.w3.org/2000/svg" xmlns:xlink="http://www.w3.org/1999/xlink" x="0px" y="0px"
	 width="164.291px" height="164.291px" viewBox="0 0 164.291 164.291" enable-background="new 0 0 164.291 164.291"
	 xml:space="preserve">
<g id="contenus">
	<path fill="#FFFFFF" d="M127.954,161.273H36.337c-10.366,0-18.792-8.426-18.792-18.792V28.195c0-10.365,8.426-18.792,18.792-18.792
		h20.062c1.839,0,3.344,1.504,3.344,3.344c0,1.839-1.505,3.344-3.344,3.344H36.337c-6.654,0-12.104,5.417-12.104,12.104v114.286
		c0,6.654,5.417,12.104,12.104,12.104h91.617c6.653,0,12.104-5.417,12.104-12.104V28.195c0-6.654-5.417-12.104-12.104-12.104
		h-15.716c-1.839,0-3.344-1.505-3.344-3.344c0-1.839,1.505-3.344,3.344-3.344h15.716c10.365,0,18.791,8.426,18.791,18.792v114.286
		C146.745,152.848,138.319,161.273,127.954,161.273z"/>
	<path fill="#FFFFFF" d="M101.706,35.384H62.585c-6.453,0-11.703-5.25-11.703-11.703v-8.96c0-6.454,5.25-11.703,11.703-11.703
		h39.121c6.453,0,11.703,5.25,11.703,11.703v8.96C113.409,30.135,108.159,35.384,101.706,35.384z M62.585,9.705
		c-2.775,0-5.016,2.241-5.016,5.016v8.96c0,2.775,2.24,5.016,5.016,5.016h39.121c2.775,0,5.016-2.24,5.016-5.016v-8.96
		c0-2.775-2.24-5.016-5.016-5.016H62.585z"/>
	<g>
		<path fill="#FFFFFF" d="M124.042,58.623h-40.76c-1.839,0-3.344-1.505-3.344-3.344s1.505-3.344,3.344-3.344h40.76
			c1.839,0,3.344,1.505,3.344,3.344S125.881,58.623,124.042,58.623z"/>
	</g>
	<g>
		<path fill="#FFFFFF" d="M124.042,97.309h-40.76c-1.839,0-3.344-1.505-3.344-3.344s1.505-3.344,3.344-3.344h40.76
			c1.839,0,3.344,1.505,3.344,3.344S125.881,97.309,124.042,97.309z"/>
	</g>
	<g>
		<path fill="#FFFFFF" d="M124.042,136.028h-40.76c-1.839,0-3.344-1.504-3.344-3.344c0-1.839,1.505-3.344,3.344-3.344h40.76
			c1.839,0,3.344,1.505,3.344,3.344C127.386,134.524,125.881,136.028,124.042,136.028z"/>
	</g>
	<path fill="#FFFFFF" d="M59.609,146.461H45.165c-3.611,0-6.554-2.942-6.554-6.554v-14.444c0-3.611,2.942-6.554,6.554-6.554h14.445
		c3.611,0,6.553,2.942,6.553,6.554v14.444C66.196,143.519,63.254,146.461,59.609,146.461z M59.509,125.463l-14.344,0.134
		l0.134,14.344l14.21-0.134V125.463z M59.609,139.773L59.609,139.773L59.609,139.773z"/>
	<path fill="#FFFFFF" d="M59.609,107.774H45.165c-3.611,0-6.554-2.942-6.554-6.554V86.743c0-3.611,2.942-6.554,6.554-6.554h14.445
		c3.611,0,6.553,2.942,6.553,6.554v14.478C66.196,104.832,63.254,107.774,59.609,107.774z M59.509,86.743l-14.344,0.134
		l0.134,14.344l14.21-0.134V86.743z M59.609,101.087L59.609,101.087L59.609,101.087z"/>
	<path fill="#FFFFFF" d="M59.609,69.088H45.165c-3.611,0-6.554-2.942-6.554-6.554V48.057c0-3.611,2.942-6.553,6.554-6.553h14.445
		c3.611,0,6.553,2.942,6.553,6.553v14.478C66.196,66.112,63.254,69.088,59.609,69.088z M59.509,48.057L45.165,48.19l0.134,14.344
		l14.21-0.134V48.057z M59.609,62.401L59.609,62.401L59.609,62.401z"/>
</g>
<g id="gabarit">
</g>
</svg>
