<?xml version="1.0" encoding="utf-8"?>
<!-- Generator: Adobe Illustrator 16.0.3, SVG Export Plug-In . SVG Version: 6.00 Build 0)  -->
<!DOCTYPE svg PUBLIC "-//W3C//DTD SVG 1.1//EN" "http://www.w3.org/Graphics/SVG/1.1/DTD/svg11.dtd">
<svg version="1.1" id="Calque_1" xmlns="http://www.w3.org/2000/svg" xmlns:xlink="http://www.w3.org/1999/xlink" x="0px" y="0px"
	 width="164.291px" height="164.291px" viewBox="0 0 164.291 164.291" enable-background="new 0 0 164.291 164.291"
	 xml:space="preserve">
<g id="contenus">
	<g>
		<path fill="#FFFFFF" d="M43.679,101.421c-1.029,0-2.023-0.461-2.698-1.242L25.255,81.542c-1.278-1.491-1.065-3.728,0.426-5.005
			c1.491-1.278,3.728-1.065,5.005,0.426l12.922,15.3l22.329-28.009c1.207-1.526,3.443-1.775,5.005-0.568
			c1.526,1.207,1.775,3.443,0.568,5.005l-25.027,31.417c-0.674,0.816-1.668,1.313-2.733,1.349
			C43.679,101.421,43.679,101.421,43.679,101.421z"/>
		<g>
			<path fill="#FFFFFF" d="M157.595,105.682c-0.887,0-1.739-0.319-2.414-0.959l-42.634-39.936c-1.42-1.349-1.491-3.585-0.178-5.005
				c1.35-1.456,3.586-1.491,5.006-0.178l42.634,39.937c1.42,1.349,1.491,3.586,0.178,5.005
				C159.512,105.291,158.554,105.682,157.595,105.682z"/>
			<path fill="#FFFFFF" d="M114.997,105.682c-0.959,0-1.882-0.391-2.592-1.137c-1.35-1.419-1.278-3.691,0.178-5.005l42.634-39.937
				c1.42-1.349,3.691-1.278,5.005,0.178c1.35,1.42,1.278,3.692-0.177,5.005l-42.635,39.936
				C116.735,105.362,115.849,105.682,114.997,105.682z"/>
		</g>
		<path fill="#FFFFFF" d="M72.966,127.371H23.693c-11.36,0-20.589-9.229-20.589-20.589V57.509c0-11.36,9.229-20.589,20.589-20.589
			h49.272c11.359,0,20.589,9.229,20.589,20.589v49.273C93.52,118.142,84.29,127.371,72.966,127.371z M23.693,44.055
			c-7.419,0-13.49,6.035-13.49,13.49v49.272c0,7.419,6.035,13.489,13.49,13.489h49.272c7.419,0,13.489-6.034,13.489-13.489V57.509
			c0-7.419-6.034-13.49-13.489-13.49H23.693V44.055z"/>
	</g>
</g>
<g id="gabarit">
</g>
</svg>
