<?xml version="1.0" encoding="utf-8"?>
<!-- Generator: Adobe Illustrator 16.0.3, SVG Export Plug-In . SVG Version: 6.00 Build 0)  -->
<!DOCTYPE svg PUBLIC "-//W3C//DTD SVG 1.1//EN" "http://www.w3.org/Graphics/SVG/1.1/DTD/svg11.dtd">
<svg version="1.1" id="Calque_1" xmlns="http://www.w3.org/2000/svg" xmlns:xlink="http://www.w3.org/1999/xlink" x="0px" y="0px"
	 width="164.291px" height="164.291px" viewBox="0 0 164.291 164.291" enable-background="new 0 0 164.291 164.291"
	 xml:space="preserve">
<g id="contenus">
	<g>
		<g>
			<path fill="#FFFFFF" d="M122.029,140.664h-75.31c-1.844,0-3.352-1.508-3.352-3.352c0-1.843,1.508-3.352,3.352-3.352h71.958
				V10.756h-69.21L21.481,47.658v69.915c0,1.843-1.508,3.352-3.352,3.352s-3.352-1.509-3.352-3.352V46.518
				c0-0.737,0.234-1.441,0.67-2.011L45.11,5.36c0.637-0.838,1.609-1.341,2.681-1.341h74.238c1.844,0,3.352,1.508,3.352,3.352
				v129.941C125.381,139.189,123.906,140.664,122.029,140.664z"/>
			<path fill="#FFFFFF" d="M46.719,140.664H18.13c-1.843,0-3.352-1.508-3.352-3.352v-21.215c0-1.844,1.508-3.352,3.352-3.352
				s3.352,1.508,3.352,3.352v17.863h25.238c1.843,0,3.352,1.509,3.352,3.352C50.071,139.156,48.596,140.664,46.719,140.664z"/>
		</g>
		<g>
			<path fill="#FFFFFF" d="M146.161,160.271H70.851c-1.843,0-3.352-1.509-3.352-3.352c0-1.844,1.508-3.352,3.352-3.352h71.959V30.33
				h-12.032c-1.844,0-3.352-1.508-3.352-3.352c0-1.843,1.508-3.352,3.352-3.352h15.384c1.844,0,3.352,1.508,3.352,3.352V156.92
				C149.513,158.763,148.005,160.271,146.161,160.271z"/>
			<path fill="#FFFFFF" d="M70.851,160.271H42.261c-1.843,0-3.352-1.509-3.352-3.352v-10.591c0-1.844,1.508-3.353,3.352-3.353
				c1.844,0,3.352,1.509,3.352,3.353v7.239h25.237c1.843,0,3.352,1.508,3.352,3.352C74.202,158.763,72.694,160.271,70.851,160.271z"
				/>
		</g>
		<path fill="#FFFFFF" d="M47.792,49.903L47.792,49.903L18.13,49.87c-1.843,0-3.352-1.508-3.352-3.352s1.508-3.352,3.352-3.352l0,0
			L44.407,43.2V7.405c0-1.843,1.508-3.352,3.351-3.352c1.844,0,3.352,1.508,3.352,3.352v39.18c0,0.905-0.369,1.743-0.972,2.38
			C49.535,49.568,48.696,49.903,47.792,49.903z"/>
	</g>
</g>
<g id="gabarit">
</g>
</svg>
