<?xml version="1.0" encoding="utf-8"?>
<!-- Generator: Adobe Illustrator 16.0.3, SVG Export Plug-In . SVG Version: 6.00 Build 0)  -->
<!DOCTYPE svg PUBLIC "-//W3C//DTD SVG 1.1//EN" "http://www.w3.org/Graphics/SVG/1.1/DTD/svg11.dtd">
<svg version="1.1" id="Calque_1" xmlns="http://www.w3.org/2000/svg" xmlns:xlink="http://www.w3.org/1999/xlink" x="0px" y="0px"
	 width="164.291px" height="164.291px" viewBox="0 0 164.291 164.291" enable-background="new 0 0 164.291 164.291"
	 xml:space="preserve">
<g id="contenus">
	<g>
		<path fill="#FFFFFF" d="M134.549,161.669H31.451c-13.955,0-25.327-11.371-25.327-25.326V29.657
			c0-13.955,11.372-25.326,25.327-25.326h103.098c13.955,0,25.326,11.372,25.326,25.326v106.686
			C159.875,150.298,148.504,161.669,134.549,161.669z M31.451,11.542c-10.009,0-18.152,8.143-18.152,18.152v106.686
			c0,10.009,8.143,18.151,18.152,18.151h103.098c10.009,0,18.152-8.143,18.152-18.151V29.657c0-10.008-8.144-18.151-18.152-18.151
			H31.451V11.542z"/>
		<path fill="#FFFFFF" d="M156.288,49.997H9.711c-1.973,0-3.587-1.614-3.587-3.587c0-1.973,1.615-3.587,3.587-3.587h146.541
			c1.974,0,3.588,1.614,3.588,3.587C159.84,48.383,158.261,49.997,156.288,49.997z"/>
		<g>
			<g>
				<path fill="#FFFFFF" d="M134.872,75.251H74.964c-1.973,0-3.587-1.614-3.587-3.587c0-1.973,1.614-3.587,3.587-3.587h59.908
					c1.973,0,3.587,1.614,3.587,3.587C138.459,73.637,136.845,75.251,134.872,75.251z"/>
				<path fill="#FFFFFF" d="M134.872,95.699H74.964c-1.973,0-3.587-1.614-3.587-3.588c0-1.973,1.614-3.587,3.587-3.587h59.908
					c1.973,0,3.587,1.614,3.587,3.587C138.459,94.085,136.845,95.699,134.872,95.699z"/>
				<path fill="#FFFFFF" d="M134.872,116.146H74.964c-1.973,0-3.587-1.614-3.587-3.587c0-1.974,1.614-3.588,3.587-3.588h59.908
					c1.973,0,3.587,1.614,3.587,3.588C138.459,114.568,136.845,116.146,134.872,116.146z"/>
				<path fill="#FFFFFF" d="M134.872,136.595H74.964c-1.973,0-3.587-1.615-3.587-3.588s1.614-3.587,3.587-3.587h59.908
					c1.973,0,3.587,1.614,3.587,3.587S136.845,136.595,134.872,136.595z"/>
			</g>
			<g>
				<path fill="#FFFFFF" d="M49.997,75.251H31.164c-1.973,0-3.587-1.614-3.587-3.587c0-1.973,1.614-3.587,3.587-3.587h18.869
					c1.973,0,3.587,1.614,3.587,3.587C53.62,73.637,52.006,75.251,49.997,75.251z"/>
				<path fill="#FFFFFF" d="M49.997,95.699H31.164c-1.973,0-3.587-1.614-3.587-3.588c0-1.973,1.614-3.587,3.587-3.587h18.869
					c1.973,0,3.587,1.614,3.587,3.587C53.62,94.085,52.006,95.699,49.997,95.699z"/>
				<path fill="#FFFFFF" d="M49.997,116.146H31.164c-1.973,0-3.587-1.614-3.587-3.587c0-1.974,1.614-3.588,3.587-3.588h18.869
					c1.973,0,3.587,1.614,3.587,3.588C53.584,114.568,52.006,116.146,49.997,116.146z"/>
				<path fill="#FFFFFF" d="M49.997,136.595H31.164c-1.973,0-3.587-1.615-3.587-3.588s1.614-3.587,3.587-3.587h18.869
					c1.973,0,3.587,1.614,3.587,3.587S52.006,136.595,49.997,136.595z"/>
			</g>
		</g>
	</g>
</g>
<g id="gabarit">
</g>
</svg>
