<?xml version="1.0" encoding="utf-8"?>
<!-- Generator: Adobe Illustrator 16.0.3, SVG Export Plug-In . SVG Version: 6.00 Build 0)  -->
<!DOCTYPE svg PUBLIC "-//W3C//DTD SVG 1.1//EN" "http://www.w3.org/Graphics/SVG/1.1/DTD/svg11.dtd">
<svg version="1.1" id="Calque_1" xmlns="http://www.w3.org/2000/svg" xmlns:xlink="http://www.w3.org/1999/xlink" x="0px" y="0px"
	 width="164.291px" height="164.291px" viewBox="0 0 164.291 164.291" enable-background="new 0 0 164.291 164.291"
	 xml:space="preserve">
<g id="contenus">
	<g>
		<path fill="#FFFFFF" d="M82.128,160.91L82.128,160.91c-1.077,0-2.085-0.487-2.746-1.355l-21.551-27.981H29.607
			c-12.444,0-22.594-10.149-22.594-22.594V25.974c0-12.443,10.15-22.593,22.594-22.593h105.077c12.444,0,22.594,10.15,22.594,22.593
			v83.005c0,12.444-10.149,22.594-22.594,22.594H106.46l-21.552,27.981C84.248,160.423,83.205,160.91,82.128,160.91z M29.607,10.333
			c-8.621,0-15.642,7.021-15.642,15.641v83.005c0,8.62,7.021,15.642,15.642,15.642h29.962c1.078,0,2.085,0.487,2.746,1.356
			l19.813,25.756l19.848-25.756c0.66-0.869,1.668-1.356,2.746-1.356h29.962c8.621,0,15.643-7.021,15.643-15.642V25.974
			c0-8.62-7.021-15.641-15.643-15.641H29.607z"/>
		<path fill="#FFFFFF" d="M82.128,105.018c-1.912,0-3.476-1.564-3.476-3.477V56.493c0-1.912,1.564-3.476,3.476-3.476
			c1.912,0,3.476,1.564,3.476,3.476v45.014C85.604,103.453,84.04,105.018,82.128,105.018z"/>
		<path fill="#FFFFFF" d="M82.128,44.223c-4.971,0-9.002-4.032-9.002-9.038c0-5.005,4.032-9.038,9.002-9.038
			s9.037,4.033,9.037,9.038C91.165,40.191,87.099,44.223,82.128,44.223z M82.128,33.135c-1.147,0-2.05,0.938-2.05,2.086
			c0,1.146,0.938,2.085,2.05,2.085s2.086-0.938,2.086-2.085C84.214,34.073,83.275,33.135,82.128,33.135z"/>
	</g>
</g>
<g id="gabarit">
</g>
</svg>
