<?xml version="1.0" encoding="utf-8"?>
<!-- Generator: Adobe Illustrator 16.0.3, SVG Export Plug-In . SVG Version: 6.00 Build 0)  -->
<!DOCTYPE svg PUBLIC "-//W3C//DTD SVG 1.1//EN" "http://www.w3.org/Graphics/SVG/1.1/DTD/svg11.dtd">
<svg version="1.1" id="Calque_1" xmlns="http://www.w3.org/2000/svg" xmlns:xlink="http://www.w3.org/1999/xlink" x="0px" y="0px"
	 width="164.291px" height="164.291px" viewBox="0 0 164.291 164.291" enable-background="new 0 0 164.291 164.291"
	 xml:space="preserve">
<g id="contenus">
	<g>
		<path fill="#C8C8C8" d="M116.31,41.583H47.948c-1.81,0-3.29-1.48-3.29-3.29c0-1.809,1.48-3.29,3.29-3.29h68.362
			c1.81,0,3.29,1.481,3.29,3.29C119.6,40.102,118.119,41.583,116.31,41.583z"/>
		<path fill="#C8C8C8" d="M131.574,121.459c-1.81,0-3.29-1.48-3.29-3.29V18.455c0-2.139-1.776-3.849-3.98-3.849h-84.35
			c-2.205,0-3.981,1.744-3.981,3.849v99.714c0,1.81-1.48,3.29-3.29,3.29s-3.29-1.48-3.29-3.29V18.455
			c0-5.757,4.737-10.429,10.56-10.429h84.383c5.823,0,10.56,4.671,10.56,10.429v99.714
			C134.864,120.011,133.417,121.459,131.574,121.459z"/>
		<path fill="#C8C8C8" d="M147.728,136.559H16.563c-6.086,0-11.054-4.901-11.054-10.922V45.925c0-6.021,4.968-10.922,11.054-10.922
			h5.033c1.81,0,3.29,1.481,3.29,3.29c0,1.81-1.48,3.29-3.29,3.29h-5.033c-2.467,0-4.474,1.941-4.474,4.342v79.712
			c0,2.401,2.007,4.343,4.474,4.343h131.165c2.467,0,4.474-1.941,4.474-4.343V45.925c0-2.401-2.007-4.342-4.474-4.342h-6.481
			c-1.81,0-3.29-1.48-3.29-3.29c0-1.809,1.48-3.29,3.29-3.29h6.481c6.086,0,11.054,4.902,11.054,10.922v79.712
			C158.781,131.69,153.813,136.559,147.728,136.559z"/>
		<path fill="#C8C8C8" d="M57.291,26.91h-9.343c-1.81,0-3.29-1.48-3.29-3.29c0-1.81,1.48-3.29,3.29-3.29h9.343
			c1.81,0,3.29,1.48,3.29,3.29C60.581,25.429,59.133,26.91,57.291,26.91z"/>
		<path fill="#C8C8C8" d="M74.266,26.91h-9.343c-1.809,0-3.29-1.48-3.29-3.29c0-1.81,1.48-3.29,3.29-3.29h9.343
			c1.81,0,3.29,1.48,3.29,3.29C77.556,25.429,76.108,26.91,74.266,26.91z"/>
		<path fill="#C8C8C8" d="M75.187,87.771H50.546c-1.809,0-3.29-1.48-3.29-3.29V53.59c0-1.809,1.48-3.29,3.29-3.29h24.641
			c1.81,0,3.29,1.48,3.29,3.29v30.892C78.477,86.291,76.997,87.771,75.187,87.771z M53.804,81.191h18.061V56.88H53.804V81.191z"/>
		<path fill="#C8C8C8" d="M113.743,87.771H89.07c-1.81,0-3.29-1.48-3.29-3.29V53.59c0-1.809,1.48-3.29,3.29-3.29h24.673
			c1.81,0,3.29,1.48,3.29,3.29v30.892C117.033,86.291,115.586,87.771,113.743,87.771z M92.393,81.191h18.094V56.88H92.393V81.191z"
			/>
		<path fill="#C8C8C8" d="M75.187,120.768c-1.81,0-3.29-1.48-3.29-3.29v-15.034H53.836v14.771c0,1.81-1.48,3.29-3.29,3.29
			c-1.809,0-3.29-1.48-3.29-3.29V99.153c0-1.809,1.48-3.289,3.29-3.289h24.641c1.81,0,3.29,1.48,3.29,3.289v18.324
			C78.477,119.287,76.997,120.768,75.187,120.768z"/>
		<path fill="#C8C8C8" d="M107.625,156.265H56.633c-1.217,0-2.336-0.658-2.895-1.743c-0.559-1.086-0.494-2.369,0.164-3.389
			l13.16-19.706c1.02-1.514,3.06-1.908,4.573-0.921c1.513,0.986,1.908,3.06,0.921,4.572l-9.738,14.574h38.622l-9.672-14.311
			c-1.02-1.514-0.625-3.554,0.889-4.573c1.513-1.02,3.553-0.625,4.572,0.889l13.159,19.442c0.691,1.02,0.757,2.303,0.197,3.389
			C109.96,155.606,108.842,156.265,107.625,156.265z"/>
		<path fill="#C8C8C8" d="M113.743,120.768c-1.809,0-3.289-1.48-3.289-3.29v-15.034H92.36v14.771c0,1.81-1.48,3.29-3.29,3.29
			s-3.29-1.48-3.29-3.29V99.153c0-1.809,1.48-3.289,3.29-3.289h24.673c1.81,0,3.29,1.48,3.29,3.289v18.324
			C117.033,119.287,115.586,120.768,113.743,120.768z"/>
	</g>
</g>
<g id="gabarit">
</g>
</svg>
