<?xml version="1.0" encoding="utf-8"?>
<!-- Generator: Adobe Illustrator 16.0.3, SVG Export Plug-In . SVG Version: 6.00 Build 0)  -->
<!DOCTYPE svg PUBLIC "-//W3C//DTD SVG 1.1//EN" "http://www.w3.org/Graphics/SVG/1.1/DTD/svg11.dtd">
<svg version="1.1" id="Calque_1" xmlns="http://www.w3.org/2000/svg" xmlns:xlink="http://www.w3.org/1999/xlink" x="0px" y="0px"
	 width="164.291px" height="164.291px" viewBox="0 0 164.291 164.291" enable-background="new 0 0 164.291 164.291"
	 xml:space="preserve">
<g id="contenus">
	<g>
		<path fill="#C8C8C8" d="M157.503,13.803H8.497c-1.968,0-3.579-1.61-3.579-3.579s1.61-3.579,3.579-3.579h149.006
			c1.969,0,3.578,1.61,3.578,3.579S159.472,13.803,157.503,13.803z"/>
		<path fill="#C8C8C8" d="M157.503,57.567H8.497c-1.968,0-3.579-1.61-3.579-3.579c0-1.968,1.61-3.578,3.579-3.578h149.006
			c1.969,0,3.578,1.61,3.578,3.578C161.081,55.992,159.472,57.567,157.503,57.567z"/>
		<path fill="#C8C8C8" d="M157.503,101.367H97.063c-1.969,0-3.579-1.61-3.579-3.579c0-1.968,1.61-3.578,3.579-3.578h60.439
			c1.969,0,3.578,1.61,3.578,3.578C161.081,99.757,159.472,101.367,157.503,101.367z"/>
		<path fill="#C8C8C8" d="M157.503,145.167H97.063c-1.969,0-3.579-1.61-3.579-3.578c0-1.969,1.61-3.579,3.579-3.579h60.439
			c1.969,0,3.578,1.61,3.578,3.579C161.081,143.557,159.472,145.167,157.503,145.167z"/>
		<path fill="#C8C8C8" d="M61.852,159.48H16.799c-6.548,0-11.88-5.331-11.88-11.88v-45.089c0-6.548,5.332-11.88,11.88-11.88h45.053
			c6.548,0,11.88,5.332,11.88,11.88v45.053C73.768,154.149,68.436,159.48,61.852,159.48z M16.799,97.788
			c-2.612,0-4.724,2.111-4.724,4.724v45.053c0,2.612,2.111,4.724,4.724,4.724h45.053c2.612,0,4.724-2.111,4.724-4.724v-45.053
			c0-2.612-2.111-4.724-4.724-4.724H16.799L16.799,97.788z"/>
	</g>
</g>
<g id="gabarit">
</g>
</svg>
