<?xml version="1.0" encoding="utf-8"?>
<!-- Generator: Adobe Illustrator 16.0.3, SVG Export Plug-In . SVG Version: 6.00 Build 0)  -->
<!DOCTYPE svg PUBLIC "-//W3C//DTD SVG 1.1//EN" "http://www.w3.org/Graphics/SVG/1.1/DTD/svg11.dtd">
<svg version="1.1" id="Calque_1" xmlns="http://www.w3.org/2000/svg" xmlns:xlink="http://www.w3.org/1999/xlink" x="0px" y="0px"
	 width="164.291px" height="164.291px" viewBox="0 0 164.291 164.291" enable-background="new 0 0 164.291 164.291"
	 xml:space="preserve">
<g id="contenus">
	<g>
		<path fill="#FFFFFF" d="M127.447,64.271c-15.778,0-28.58-12.833-28.58-28.58c0-15.778,12.834-28.579,28.58-28.579
			c15.777,0,28.579,12.833,28.579,28.579C156.026,51.438,143.225,64.271,127.447,64.271z M127.447,13.481
			c-12.226,0-22.179,9.953-22.179,22.179c0,12.225,9.953,22.179,22.179,22.179c12.225,0,22.178-9.954,22.178-22.179
			C149.625,23.435,139.672,13.481,127.447,13.481z"/>
		<path fill="#FFFFFF" d="M127.447,157.179c-15.778,0-28.58-12.834-28.58-28.58c0-15.777,12.834-28.579,28.58-28.579
			c15.777,0,28.579,12.834,28.579,28.579C156.026,144.377,143.225,157.179,127.447,157.179z M127.447,106.389
			c-12.226,0-22.179,9.953-22.179,22.179c0,12.225,9.953,22.179,22.179,22.179c12.225,0,22.178-9.954,22.178-22.179
			C149.625,116.373,139.672,106.389,127.447,106.389z"/>
		<path fill="#FFFFFF" d="M36.844,111.989c-15.778,0-28.58-12.834-28.58-28.579c0-15.747,12.833-28.58,28.58-28.58
			c15.778,0,28.579,12.833,28.579,28.58C65.423,99.155,52.59,111.989,36.844,111.989z M36.844,61.199
			c-12.226,0-22.179,9.953-22.179,22.179s9.953,22.178,22.179,22.178s22.179-9.952,22.179-22.178S49.07,61.199,36.844,61.199z"/>
		<path fill="#FFFFFF" d="M58.895,74.032c-1.12,0-2.208-0.576-2.784-1.632c-0.864-1.536-0.352-3.488,1.216-4.353l45.03-25.603
			c1.535-0.864,3.488-0.32,4.352,1.216c0.864,1.537,0.353,3.489-1.216,4.353L60.463,73.617
			C59.951,73.904,59.407,74.032,58.895,74.032z"/>
		<path fill="#FFFFFF" d="M102.036,123.767c-0.544,0-1.088-0.128-1.568-0.416L57.327,98.739c-1.536-0.864-2.081-2.816-1.184-4.353
			c0.864-1.536,2.816-2.08,4.353-1.184l43.141,24.61c1.536,0.864,2.08,2.816,1.185,4.353
			C104.244,123.19,103.156,123.767,102.036,123.767z"/>
	</g>
</g>
<g id="gabarit">
</g>
</svg>
