<?xml version="1.0" encoding="utf-8"?>
<!-- Generator: Adobe Illustrator 16.0.3, SVG Export Plug-In . SVG Version: 6.00 Build 0)  -->
<!DOCTYPE svg PUBLIC "-//W3C//DTD SVG 1.1//EN" "http://www.w3.org/Graphics/SVG/1.1/DTD/svg11.dtd">
<svg version="1.1" id="Calque_1" xmlns="http://www.w3.org/2000/svg" xmlns:xlink="http://www.w3.org/1999/xlink" x="0px" y="0px"
	 width="164.291px" height="164.291px" viewBox="0 0 164.291 164.291" enable-background="new 0 0 164.291 164.291"
	 xml:space="preserve">
<g id="contenus">
	<g>
		<path fill="#C8C8C8" d="M129.02,162.874H35.271c-10.606,0-19.228-8.621-19.228-19.229V40.387c0-10.606,8.622-19.229,19.228-19.229
			H55.8c1.882,0,3.421,1.54,3.421,3.422s-1.539,3.421-3.421,3.421H35.271c-6.808,0-12.385,5.543-12.385,12.386v103.258
			c0,6.809,5.543,12.387,12.385,12.387h93.749c6.809,0,12.385-5.543,12.385-12.387V40.387c0-6.81-5.543-12.386-12.385-12.386
			h-16.082c-1.881,0-3.421-1.539-3.421-3.421s1.54-3.422,3.421-3.422h16.082c10.606,0,19.229,8.623,19.229,19.229v103.258
			C148.248,154.253,139.626,162.874,129.02,162.874z"/>
		<g>
			<path fill="#C8C8C8" d="M118.584,67.245H45.707c-1.882,0-3.421-1.539-3.421-3.421c0-1.881,1.539-3.422,3.421-3.422h72.877
				c1.882,0,3.421,1.541,3.421,3.422C122.005,65.706,120.5,67.245,118.584,67.245z"/>
			<path fill="#C8C8C8" d="M118.584,92.12H45.707c-1.882,0-3.421-1.541-3.421-3.422c0-1.883,1.539-3.422,3.421-3.422h72.877
				c1.882,0,3.421,1.539,3.421,3.422C122.005,90.579,120.5,92.12,118.584,92.12z"/>
			<path fill="#C8C8C8" d="M118.584,117.026H45.707c-1.882,0-3.421-1.539-3.421-3.42c0-1.883,1.539-3.422,3.421-3.422h72.877
				c1.882,0,3.421,1.539,3.421,3.422C122.005,115.487,120.5,117.026,118.584,117.026z"/>
			<path fill="#C8C8C8" d="M118.584,141.901H45.707c-1.882,0-3.421-1.539-3.421-3.422c0-1.881,1.539-3.422,3.421-3.422h72.877
				c1.882,0,3.421,1.541,3.421,3.422C122.005,140.362,120.5,141.901,118.584,141.901z"/>
		</g>
		<path fill="#C8C8C8" d="M102.161,47.743H62.13c-6.603,0-11.976-5.372-11.976-11.976v-9.169c0-6.604,5.373-11.975,11.976-11.975
			h3.729c1.574-7.527,8.279-13.207,16.286-13.207c8.006,0,14.712,5.68,16.286,13.207h3.729c6.604,0,11.976,5.372,11.976,11.975
			v9.169C114.137,42.371,108.765,47.743,102.161,47.743z M62.13,21.466c-2.839,0-5.132,2.292-5.132,5.132v9.169
			c0,2.84,2.293,5.132,5.132,5.132h40.031c2.839,0,5.132-2.292,5.132-5.132v-9.169c0-2.84-2.293-5.132-5.132-5.132h-6.809
			c-1.882,0-3.422-1.539-3.422-3.421c0-5.405-4.38-9.785-9.785-9.785s-9.785,4.38-9.785,9.785c0,1.882-1.541,3.421-3.421,3.421
			H62.13z M98.773,18.044L98.773,18.044L98.773,18.044z"/>
	</g>
</g>
<g id="gabarit">
</g>
</svg>
