<?xml version="1.0" encoding="utf-8"?>
<!-- Generator: Adobe Illustrator 16.0.3, SVG Export Plug-In . SVG Version: 6.00 Build 0)  -->
<!DOCTYPE svg PUBLIC "-//W3C//DTD SVG 1.1//EN" "http://www.w3.org/Graphics/SVG/1.1/DTD/svg11.dtd">
<svg version="1.1" id="Layer_2" xmlns="http://www.w3.org/2000/svg" xmlns:xlink="http://www.w3.org/1999/xlink" x="0px" y="0px"
	 width="164.291px" height="164.291px" viewBox="0 0 164.291 164.291" enable-background="new 0 0 164.291 164.291"
	 xml:space="preserve">
<g id="contenus">
	<g>
		<g>
			<path fill="#FFFFFF" d="M134.156,137.065H30.134c-2.012,0-3.659-1.646-3.659-3.659V8.529c0-2.012,1.646-3.659,3.659-3.659h75.996
				c1.061,0,2.049,0.439,2.744,1.244L136.9,38.056c0.586,0.659,0.915,1.537,0.915,2.415v92.936
				C137.815,135.455,136.169,137.065,134.156,137.065z M33.793,129.747h96.704V41.861l-26.015-29.674H33.793V129.747z"/>
			<path fill="#FFFFFF" d="M134.156,43.544h-28.648c-2.013,0-3.659-1.646-3.659-3.659V8.529c0-2.012,1.646-3.659,3.659-3.659
				c2.012,0,3.658,1.646,3.658,3.659v27.698h24.99c2.013,0,3.659,1.646,3.659,3.659C137.815,41.898,136.169,43.544,134.156,43.544z"
				/>
		</g>
		<g>
			<rect x="73.968" y="109.111" fill="#FFFFFF" width="16.282" height="50.31"/>
			<polygon fill="#FFFFFF" points="56.844,116.21 82.127,79.584 107.446,116.21 			"/>
		</g>
	</g>
</g>
<g id="gabarit">
</g>
</svg>
