<?xml version="1.0" encoding="utf-8"?>
<!-- Generator: Adobe Illustrator 16.0.3, SVG Export Plug-In . SVG Version: 6.00 Build 0)  -->
<!DOCTYPE svg PUBLIC "-//W3C//DTD SVG 1.1//EN" "http://www.w3.org/Graphics/SVG/1.1/DTD/svg11.dtd">
<svg version="1.1" id="Calque_1" xmlns="http://www.w3.org/2000/svg" xmlns:xlink="http://www.w3.org/1999/xlink" x="0px" y="0px"
	 width="164.291px" height="164.291px" viewBox="0 0 164.291 164.291" enable-background="new 0 0 164.291 164.291"
	 xml:space="preserve">
<g id="contenus">
	<g>
		<path fill="#C8C8C8" d="M125.821,164.154H19.201c-1.904,0-3.462-1.558-3.462-3.462V5.434c0-1.904,1.558-3.462,3.462-3.462h106.621
			c13.467,0,24.44,10.974,24.44,24.44v113.337C150.262,153.181,139.288,164.154,125.821,164.154z M22.662,157.23h103.159
			c9.659,0,17.517-7.857,17.517-17.516V26.377c0-9.658-7.857-17.516-17.517-17.516H22.662V157.23z"/>
		<path fill="#C8C8C8" d="M125.303,162.424c-1.904,0-3.462-1.559-3.462-3.462V7.13c0-1.904,1.558-3.462,3.462-3.462
			c1.903,0,3.461,1.558,3.461,3.462v151.832C128.764,160.865,127.241,162.424,125.303,162.424z"/>
		<g>
			<path fill="#C8C8C8" d="M94.146,72.003H52.675c-1.904,0-3.461-1.558-3.461-3.462c0-1.904,1.558-3.461,3.461-3.461h41.471
				c1.904,0,3.462,1.558,3.462,3.461C97.608,70.445,96.051,72.003,94.146,72.003z"/>
			<path fill="#C8C8C8" d="M94.146,94.055H52.675c-1.904,0-3.461-1.558-3.461-3.462s1.558-3.462,3.461-3.462h41.471
				c1.904,0,3.462,1.558,3.462,3.462S96.051,94.055,94.146,94.055z"/>
			<path fill="#C8C8C8" d="M94.146,116.105H52.675c-1.904,0-3.461-1.558-3.461-3.462s1.558-3.462,3.461-3.462h41.471
				c1.904,0,3.462,1.558,3.462,3.462S96.051,116.105,94.146,116.105z"/>
		</g>
		<path fill="#C8C8C8" d="M40.56,39.774c-0.554,0-1.108-0.139-1.593-0.381c-1.142-0.588-1.869-1.766-1.869-3.081V6.922
			c0-1.904,1.558-3.461,3.462-3.461c1.904,0,3.461,1.558,3.461,3.461v22.674l8.585-6.023c1.212-0.831,2.804-0.831,3.981,0
			l8.585,6.058V6.922c0-1.904,1.558-3.461,3.461-3.461c1.904,0,3.462,1.558,3.462,3.461v29.355c0,1.281-0.727,2.493-1.869,3.081
			c-1.143,0.588-2.527,0.519-3.6-0.242l-12.047-8.481l-12.046,8.481C41.979,39.532,41.252,39.774,40.56,39.774z"/>
	</g>
</g>
<g id="gabarit">
</g>
</svg>
