<?xml version="1.0" encoding="utf-8"?>
<!-- Generator: Adobe Illustrator 16.0.3, SVG Export Plug-In . SVG Version: 6.00 Build 0)  -->
<!DOCTYPE svg PUBLIC "-//W3C//DTD SVG 1.1//EN" "http://www.w3.org/Graphics/SVG/1.1/DTD/svg11.dtd">
<svg version="1.1" id="Calque_1" xmlns="http://www.w3.org/2000/svg" xmlns:xlink="http://www.w3.org/1999/xlink" x="0px" y="0px"
	 width="164.291px" height="164.291px" viewBox="0 0 164.291 164.291" enable-background="new 0 0 164.291 164.291"
	 xml:space="preserve">
<g id="contenus">
	<g>
		<path fill="#FFFFFF" d="M82.145,141.661c-0.511,0-1.058-0.11-1.532-0.329L29.84,117.899c-1.277-0.584-2.116-1.898-2.116-3.321
			V6.354c0-1.241,0.619-2.409,1.678-3.065c1.059-0.657,2.373-0.767,3.504-0.256L83.679,26.43c1.277,0.584,2.117,1.898,2.117,3.322
			v108.259c0,1.241-0.621,2.409-1.68,3.066C83.532,141.442,82.839,141.661,82.145,141.661z M35.023,112.278l43.473,20.038V32.088
			L35.023,12.049V112.278z"/>
		<path fill="#FFFFFF" d="M82.145,141.661c-0.693,0-1.387-0.183-1.971-0.584c-1.059-0.657-1.679-1.825-1.679-3.066V29.752
			c0-1.424,0.839-2.701,2.117-3.322l50.771-23.396c1.131-0.511,2.445-0.438,3.504,0.256c1.059,0.656,1.68,1.824,1.68,3.065v108.26
			c0,1.424-0.84,2.701-2.117,3.321l-50.771,23.396C83.204,141.551,82.655,141.661,82.145,141.661z M85.796,32.088v100.229
			l43.471-20.038V12.049L85.796,32.088z"/>
		<path fill="#FFFFFF" d="M82.145,161.59c-0.474,0-0.948-0.073-1.387-0.256l-68.693-28.104c-1.388-0.548-2.263-1.898-2.263-3.395
			V21.575c0-1.168,0.584-2.3,1.533-2.956c0.948-0.693,2.189-0.877,3.32-0.475l17.922,6.168c1.898,0.657,2.92,2.738,2.264,4.636
			c-0.657,1.898-2.738,2.92-4.636,2.263l-13.104-4.489v100.704l61.394,25.112v-14.491c0-2.007,1.643-3.649,3.649-3.649
			c2.008,0,3.651,1.643,3.651,3.649v19.93c0,1.204-0.621,2.336-1.607,3.029C83.569,161.371,82.876,161.59,82.145,161.59z"/>
		<path fill="#FFFFFF" d="M82.145,161.59c-0.729,0-1.423-0.219-2.044-0.62c-1.021-0.694-1.605-1.825-1.605-3.03v-19.929
			c0-2.008,1.643-3.649,3.649-3.649c2.008,0,3.651,1.642,3.651,3.649v14.49l61.393-25.111V26.722l-13.104,4.489
			c-1.898,0.657-3.979-0.364-4.635-2.263c-0.658-1.897,0.363-3.979,2.262-4.636l17.922-6.168c1.131-0.365,2.336-0.219,3.322,0.475
			c0.984,0.693,1.533,1.788,1.533,2.956v108.26c0,1.496-0.914,2.811-2.264,3.395l-68.693,28.068
			C83.095,161.48,82.62,161.59,82.145,161.59z"/>
	</g>
</g>
<g id="gabarit">
</g>
</svg>
