<?xml version="1.0" encoding="utf-8"?>
<!-- Generator: Adobe Illustrator 16.0.3, SVG Export Plug-In . SVG Version: 6.00 Build 0)  -->
<!DOCTYPE svg PUBLIC "-//W3C//DTD SVG 1.1//EN" "http://www.w3.org/Graphics/SVG/1.1/DTD/svg11.dtd">
<svg version="1.1" id="Layer_1" xmlns="http://www.w3.org/2000/svg" xmlns:xlink="http://www.w3.org/1999/xlink" x="0px" y="0px"
	 width="499px" height="464px" viewBox="0 0 499 464" enable-background="new 0 0 499 464" xml:space="preserve">
<path fill-rule="evenodd" clip-rule="evenodd" fill="#3C3C3C" d="M41.651,462h415.686c11.859,0,21.521-9.709,21.521-21.489
	c0-11.835-9.661-21.526-21.521-21.526H41.651c-11.823,0-21.508,9.691-21.508,21.526C20.143,452.291,29.828,462,41.651,462
	 M335.521,390.302V31.958c0-15.766,12.892-28.695,28.676-28.695h57.319c15.771,0,28.664,12.929,28.664,28.695v358.344H335.521z
	 M48.796,390.302v-128.98c0-15.779,12.917-28.685,28.689-28.685h57.342c15.76,0,28.677,12.905,28.677,28.685v128.98H48.796z
	 M192.158,390.302V146.618c0-15.779,12.917-28.671,28.666-28.671h57.354c15.76,0,28.676,12.917,28.676,28.671v243.684H192.158z"/>
</svg>
