<?xml version="1.0" encoding="utf-8"?>
<!-- Generator: Adobe Illustrator 16.0.3, SVG Export Plug-In . SVG Version: 6.00 Build 0)  -->
<!DOCTYPE svg PUBLIC "-//W3C//DTD SVG 1.1//EN" "http://www.w3.org/Graphics/SVG/1.1/DTD/svg11.dtd">
<svg version="1.1" id="Calque_1" xmlns="http://www.w3.org/2000/svg" xmlns:xlink="http://www.w3.org/1999/xlink" x="0px" y="0px"
	 width="164.291px" height="164.291px" viewBox="0 0 164.291 164.291" enable-background="new 0 0 164.291 164.291"
	 xml:space="preserve">
<g id="contenus">
	<g>
		<g>
			<g>
				<path fill="#FFFFFF" d="M105.619,157.589H29.89c-1.854,0-3.37-1.517-3.37-3.37V10.072c0-1.854,1.517-3.37,3.37-3.37h74.651
					c0.876,0,1.719,0.337,2.358,0.978l29.827,29.254c0.641,0.64,1.011,1.517,1.011,2.393v81.561c0,1.854-1.516,3.37-3.37,3.37
					c-1.854,0-3.37-1.517-3.37-3.37V40.742l-27.838-27.299H33.26v137.406h72.359c1.854,0,3.37,1.517,3.37,3.37
					S107.507,157.589,105.619,157.589z"/>
				<path fill="#FFFFFF" d="M134.367,157.589h-28.748c-1.854,0-3.37-1.517-3.37-3.37s1.517-3.37,3.37-3.37h25.378v-31.445
					c0-1.854,1.517-3.37,3.37-3.37c1.854,0,3.37,1.517,3.37,3.37v34.815C137.737,156.072,136.255,157.589,134.367,157.589z"/>
			</g>
			<path fill="#FFFFFF" d="M104.574,42.73c-0.876,0-1.752-0.371-2.393-0.977c-0.641-0.641-0.978-1.483-0.978-2.393V10.072
				c0-1.854,1.517-3.37,3.37-3.37s3.37,1.517,3.37,3.37V35.99l26.457-0.034l0,0c1.854,0,3.37,1.517,3.37,3.37s-1.517,3.37-3.37,3.37
				L104.574,42.73L104.574,42.73z"/>
		</g>
		<g>
			<path fill="#FFFFFF" d="M85.667,37.001h-40.14c-1.854,0-3.37-1.517-3.37-3.371c0-1.854,1.517-3.37,3.37-3.37h40.174
				c1.854,0,3.37,1.517,3.37,3.37C89.071,35.484,87.555,37.001,85.667,37.001z"/>
			<path fill="#FFFFFF" d="M117.313,62.817H45.527c-1.854,0-3.37-1.517-3.37-3.37s1.517-3.37,3.37-3.37h71.786
				c1.854,0,3.371,1.517,3.371,3.37S119.168,62.817,117.313,62.817z"/>
			<path fill="#FFFFFF" d="M117.313,88.6H45.527c-1.854,0-3.37-1.517-3.37-3.37s1.517-3.37,3.37-3.37h71.786
				c1.854,0,3.371,1.517,3.371,3.37S119.168,88.6,117.313,88.6z"/>
			<path fill="#FFFFFF" d="M117.313,114.382H45.527c-1.854,0-3.37-1.517-3.37-3.37s1.517-3.37,3.37-3.37h71.786
				c1.854,0,3.371,1.517,3.371,3.37S119.168,114.382,117.313,114.382z"/>
			<path fill="#FFFFFF" d="M117.313,140.165H45.527c-1.854,0-3.37-1.518-3.37-3.371s1.517-3.37,3.37-3.37h71.786
				c1.854,0,3.371,1.517,3.371,3.37S119.168,140.165,117.313,140.165z"/>
		</g>
	</g>
</g>
<g id="gabarit">
</g>
</svg>
