<?xml version="1.0" encoding="utf-8"?>
<!-- Generator: Adobe Illustrator 16.0.3, SVG Export Plug-In . SVG Version: 6.00 Build 0)  -->
<!DOCTYPE svg PUBLIC "-//W3C//DTD SVG 1.1//EN" "http://www.w3.org/Graphics/SVG/1.1/DTD/svg11.dtd">
<svg version="1.1" id="Calque_1" xmlns="http://www.w3.org/2000/svg" xmlns:xlink="http://www.w3.org/1999/xlink" x="0px" y="0px"
	 width="164.291px" height="164.291px" viewBox="0 0 164.291 164.291" enable-background="new 0 0 164.291 164.291"
	 xml:space="preserve">
<path fill="#383838" d="M42.661,109.8c-0.066-0.472-0.185-0.942-0.364-1.408l-9.985-25.626c-1.278-3.285-5.011-4.924-8.294-3.64
	l-11.541,4.496C2.146,87.644-3.011,99.392,1.01,109.719c4.027,10.327,15.77,15.49,26.104,11.462l2.476-0.966l14.286,36.669
	c0.847,2.171,3.318,3.254,5.488,2.404l13.526-5.263c2.173-0.85,3.257-3.318,2.41-5.495L42.661,109.8z"/>
<path fill="#383838" d="M108.943,67.669L91.782,23.622c-0.632-1.616-2.71-2.329-4.625-1.583l-4.695,1.833
	c-1.911,0.745-2.963,2.675-2.334,4.291l0.617,1.581l-0.432,0.763c-10.265,18.122-25.488,34.07-44.134,46.219l6.527,16.747
	l6.527,16.754c21.949-3.661,43.945-2.224,63.765,4.181l0.838,0.268l0.617,1.583c0.629,1.618,2.707,2.323,4.616,1.578l4.704-1.828
	c1.909-0.745,2.96-2.678,2.331-4.291L108.943,67.669z"/>
<path fill="#383838" d="M158.047,48.528c-6.552-16.681-16.204-31.081-27.177-40.552c-0.314-0.271-0.629-0.539-0.943-0.798
	c-1.318-1.097-3.024-1.397-4.564-0.794c-0.919,0.358-1.682,1.007-2.2,1.875c-0.641,1.08-0.826,2.396-0.526,3.699
	c0.271,1.167,0.908,2.224,1.808,2.969c0.262,0.218,0.523,0.442,0.788,0.667c9.69,8.368,18.282,21.263,24.191,36.296
	c5.827,15.081,8.22,30.388,6.744,43.106c-0.044,0.344-0.082,0.688-0.131,1.036c-0.157,1.147,0.087,2.357,0.678,3.395
	c0.661,1.17,1.691,2.014,2.891,2.369c0.972,0.291,1.968,0.25,2.89-0.105c1.54-0.6,2.594-1.973,2.821-3.673
	c0.061-0.401,0.11-0.815,0.16-1.229C167.146,82.393,164.512,65.256,158.047,48.528"/>
<path fill="#383838" d="M119,24.026c-0.247-0.207-0.498-0.419-0.745-0.623c-1.261-1.031-2.873-1.307-4.316-0.748
	c-0.856,0.334-1.569,0.937-2.059,1.743c-0.61,1.004-0.806,2.241-0.559,3.487c0.245,1.216,0.914,2.354,1.849,3.117
	c0.195,0.163,0.396,0.326,0.591,0.495c7.332,6.235,13.814,15.89,18.244,27.172c4.378,11.328,6.139,22.823,4.954,32.375
	c-0.029,0.256-0.062,0.512-0.099,0.773c-0.169,1.188,0.104,2.475,0.751,3.54c0.657,1.083,1.642,1.862,2.771,2.188
	c0.902,0.262,1.834,0.222,2.689-0.11c1.443-0.564,2.445-1.857,2.672-3.464c0.047-0.326,0.091-0.646,0.128-0.967
	c1.386-11.23-0.604-24.562-5.623-37.543C135.166,42.521,127.621,31.361,119,24.026"/>
</svg>
