<?xml version="1.0" encoding="utf-8"?>
<!-- Generator: Adobe Illustrator 16.0.3, SVG Export Plug-In . SVG Version: 6.00 Build 0)  -->
<!DOCTYPE svg PUBLIC "-//W3C//DTD SVG 1.1//EN" "http://www.w3.org/Graphics/SVG/1.1/DTD/svg11.dtd">
<svg version="1.1" id="Calque_1" xmlns="http://www.w3.org/2000/svg" xmlns:xlink="http://www.w3.org/1999/xlink" x="0px" y="0px"
	 width="164.291px" height="164.291px" viewBox="0 0 164.291 164.291" enable-background="new 0 0 164.291 164.291"
	 xml:space="preserve">
<g id="contenus">
	<g>
		<g>
			
				<rect x="97.138" y="21.947" transform="matrix(-0.7071 -0.7071 0.7071 -0.7071 145.1618 170.6452)" fill="#FFFFFF" width="21.568" height="66.624"/>
			<polygon fill="#FFFFFF" points="101.145,14.659 159.142,4.032 148.554,62.029 			"/>
		</g>
		<path fill="#FFFFFF" d="M108.986,160.259H28.089c-12.666,0-22.94-10.313-22.94-22.939V56.382c0-12.666,10.313-22.94,22.94-22.94
			h49.566c2.157,0,3.921,1.765,3.921,3.921s-1.765,3.921-3.921,3.921H28.089c-8.313,0-15.097,6.784-15.097,15.097v80.897
			c0,8.314,6.784,15.098,15.097,15.098h80.897c8.354,0,15.098-6.783,15.098-15.098v-50.82c0-2.156,1.765-3.921,3.922-3.921
			c2.156,0,3.921,1.765,3.921,3.921v50.82C131.927,149.985,121.653,160.259,108.986,160.259z"/>
	</g>
</g>
<g id="gabarit">
</g>
</svg>
