<?xml version="1.0" encoding="utf-8"?>
<!-- Generator: Adobe Illustrator 16.0.3, SVG Export Plug-In . SVG Version: 6.00 Build 0)  -->
<!DOCTYPE svg PUBLIC "-//W3C//DTD SVG 1.1//EN" "http://www.w3.org/Graphics/SVG/1.1/DTD/svg11.dtd">
<svg version="1.1" id="Calque_1" xmlns="http://www.w3.org/2000/svg" xmlns:xlink="http://www.w3.org/1999/xlink" x="0px" y="0px"
	 width="164.291px" height="164.291px" viewBox="0 0 164.291 164.291" enable-background="new 0 0 164.291 164.291"
	 xml:space="preserve">
<g id="contenus">
	<g>
		<g>
			<path fill="#FFFFFF" d="M48.947,157.998c-9.471,0-17.214-7.71-17.214-17.214c0-9.505,7.71-17.215,17.214-17.215
				s17.214,7.71,17.214,17.215C66.161,150.288,58.451,157.998,48.947,157.998z M48.947,130.249c-5.816,0-10.568,4.719-10.568,10.568
				c0,5.849,4.719,10.567,10.568,10.567c5.849,0,10.568-4.719,10.568-10.567C59.515,134.968,54.762,130.249,48.947,130.249z"/>
			<path fill="#FFFFFF" d="M35.089,142.678H9.367c-1.828,0-3.323-1.495-3.323-3.323s1.496-3.323,3.323-3.323h25.722
				c1.828,0,3.323,1.495,3.323,3.323S36.917,142.678,35.089,142.678z"/>
			<path fill="#FFFFFF" d="M154.924,142.678H62.838c-1.828,0-3.323-1.495-3.323-3.323s1.495-3.323,3.323-3.323h92.086
				c1.828,0,3.323,1.495,3.323,3.323S156.785,142.678,154.924,142.678z"/>
		</g>
		<g>
			<path fill="#FFFFFF" d="M141.73,105.126H22.561c-9.106,0-16.517-7.411-16.517-16.517v-65.8c0-9.106,7.411-16.517,16.517-16.517
				h119.17c9.106,0,16.517,7.411,16.517,16.517v65.8C158.247,97.715,150.837,105.126,141.73,105.126z M22.561,12.939
				c-5.45,0-9.87,4.42-9.87,9.87v65.8c0,5.45,4.42,9.87,9.87,9.87h119.17c5.451,0,9.87-4.42,9.87-9.87v-65.8
				c0-5.45-4.419-9.87-9.87-9.87H22.561z"/>
			<path fill="#FFFFFF" d="M63.037,79.537c-0.598,0-1.196-0.166-1.695-0.465c-0.997-0.598-1.628-1.695-1.628-2.858V35.205
				c0-1.163,0.598-2.26,1.628-2.858c0.997-0.598,2.26-0.631,3.29-0.066l38.217,20.504c1.097,0.565,1.761,1.695,1.761,2.925
				c0,1.229-0.664,2.359-1.761,2.924L64.632,79.138C64.101,79.404,63.569,79.537,63.037,79.537z M66.36,40.755v29.909l27.882-14.954
				L66.36,40.755z"/>
		</g>
	</g>
</g>
<g id="gabarit">
</g>
</svg>
