<?xml version="1.0" encoding="utf-8"?>
<!-- Generator: Adobe Illustrator 16.0.3, SVG Export Plug-In . SVG Version: 6.00 Build 0)  -->
<!DOCTYPE svg PUBLIC "-//W3C//DTD SVG 1.1//EN" "http://www.w3.org/Graphics/SVG/1.1/DTD/svg11.dtd">
<svg version="1.1" id="contenus" xmlns="http://www.w3.org/2000/svg" xmlns:xlink="http://www.w3.org/1999/xlink" x="0px" y="0px"
	 width="444.768px" height="446.215px" viewBox="83.134 171.898 444.768 446.215"
	 enable-background="new 83.134 171.898 444.768 446.215" xml:space="preserve">
<g>
	<g id="Alert">
		<path id="Tracé_1" fill="#6E6E6E" d="M500.989,563.796H361.186c0,30.92-25.065,55.985-55.985,55.985
			s-55.985-25.065-55.985-55.985H109.412c-11.675-0.39-21.762-8.277-24.954-19.515c-3.378-11.381-0.176-23.697,8.318-31.991
			c28.116-21.212,44.688-54.357,44.788-89.577v-82.858c0-92.759,75.197-167.956,167.956-167.956s167.957,75.197,167.957,167.956
			v84.138c0.399,34.793,16.95,67.423,44.788,88.298c11.872,10.579,12.92,28.779,2.34,40.651c-5.028,5.643-12.073,9.082-19.615,9.575
			V563.796z"/>
	</g>
</g>
</svg>
