<?xml version="1.0" encoding="utf-8"?>
<!-- Generator: Adobe Illustrator 16.0.3, SVG Export Plug-In . SVG Version: 6.00 Build 0)  -->
<!DOCTYPE svg PUBLIC "-//W3C//DTD SVG 1.1//EN" "http://www.w3.org/Graphics/SVG/1.1/DTD/svg11.dtd">
<svg version="1.1" id="Layer_1" xmlns="http://www.w3.org/2000/svg" xmlns:xlink="http://www.w3.org/1999/xlink" x="0px" y="0px"
	 width="511.867px" height="511.867px" viewBox="49.907 139.907 511.867 511.867"
	 enable-background="new 49.907 139.907 511.867 511.867" xml:space="preserve">
<g id="fonds_colores" display="none">
</g>
<g id="contenus">
	<g>
		<g>
			<defs>
				<rect id="SVGID_1_" x="49.907" y="139.907" width="511.867" height="511.867"/>
			</defs>
			<clipPath id="SVGID_2_">
				<use xlink:href="#SVGID_1_"  overflow="visible"/>
			</clipPath>
			<g id="Time_2_" clip-path="url(#SVGID_2_)">
				<path id="Tracé_13_2_" fill="#6E6E6E" d="M126.687,216.687c45.428-50.547,111.011-78.7,179.153-76.78
					c68.143-1.919,133.726,26.233,179.153,76.78c50.547,45.428,78.699,111.011,76.78,179.153
					c1.919,68.143-26.233,133.726-76.78,179.153c-45.428,50.547-111.011,78.699-179.153,76.78
					c-68.142,1.919-133.725-26.233-179.153-76.78c-48.308-47.348-75.82-111.65-76.78-179.153
					C47.987,328.018,76.14,262.435,126.687,216.687z M421.01,511.01l29.752-29.752L344.23,374.726L305.84,204.21h-42.549v191.95
					c-0.32,11.197,4.479,22.394,12.797,29.752c2.239,2.239,5.438,3.839,8.638,4.159L421.01,511.01z"/>
			</g>
		</g>
	</g>
</g>
<g id="gabarit">
</g>
</svg>
